<svg width="1920" height="1566" viewBox="0 0 1920 1566" fill="none" xmlns="http://www.w3.org/2000/svg">
<rect width="1920" height="1066" fill="#B4C6FF"/>
<path d="M736.804 64.6414C782 64.6414 798 31.6116 806 0H0L-0.278564 331.883C16.0877 331.883 22.586 342.225 23.7894 347.397C23.99 354.236 29.722 367.415 49.0609 367.415C68.3152 367.415 74.1317 351.567 74.3323 343.893C77.3408 332.383 74.3323 290.846 81.5527 257.315C86.4107 234.756 114.646 235.629 125.477 238.298C170.604 247.807 139.316 288.343 170.604 315.368C192.266 334.077 228.969 318.37 234.385 302.356L249.427 227.789C253.037 217.78 277.855 192.758 314.411 219.281C342.691 239.799 369.567 221.45 376.988 209.772L408.878 97.1707C420.912 58.636 424.989 53.5808 452.2 50.6287C479.878 47.626 487.7 60.6378 502.743 77.6531C514.777 91.2654 537.842 89.664 547.871 87.1617C556.896 84.6594 575.549 70.1463 599.617 25.6061C611.408 3.78619 672.423 -3.42005 685.66 31.6116C696.164 59.4095 715.143 64.6414 736.804 64.6414Z" fill="#CBD7A8" stroke="#CBD7A8" stroke-width="15"/>
<path d="M1213 156.5C1160 156.5 1173 68 1155.5 0.5L1920 0V462L1913 528.5C1913 532.5 1906 553.5 1882 553.5C1865 553.5 1855 536.333 1853.5 528.5C1851.33 502.167 1846.9 448.4 1846.5 444C1846 438.5 1842.5 423.5 1825.5 423.5C1811.9 423.5 1806.5 433.833 1805.5 439C1805.33 445.833 1800.57 459 1784.5 459C1768.5 459 1763.67 443.167 1763.5 435.5C1761 424 1763.5 382.5 1757.5 349C1753.46 326.461 1730 327.333 1721 330C1683.5 339.5 1709.5 380 1683.5 407C1665.5 425.692 1635 410 1630.5 394L1618 319.5C1615 309.5 1594.38 284.501 1564 311C1540.5 331.5 1518.17 313.167 1512 301.5L1485.5 189C1475.5 150.5 1472.11 145.449 1449.5 142.5C1426.5 139.5 1420 152.5 1407.5 169.5C1397.5 183.1 1378.33 181.5 1370 179C1362.5 176.5 1347 162 1327 117.5C1317.2 95.6997 1266.5 88.5 1255.5 123.5C1246.77 151.273 1231 156.5 1213 156.5Z" fill="#E99EA8" stroke="#E99EA8" stroke-width="15"/>
<path d="M0 1291.13V1042H1920V1337.3C1918.5 1356.54 1906.09 1387.32 1905 1390.21C1891.5 1425.8 1855.83 1444.07 1839.5 1443.11C1804 1443.11 1768.5 1368.08 1760 1356.54C1750.16 1343.18 1732 1328.65 1729.5 1324.8C1697.1 1309.41 1672 1335.06 1663.5 1349.81C1646 1364.24 1623 1494.46 1581 1521.03C1544.5 1544.11 1523 1515.25 1514 1506.6C1505 1497.94 1474.5 1429.65 1451 1397.9C1427.5 1366.16 1395.5 1372.89 1382 1386.36C1368.5 1399.83 1345.5 1428.68 1323 1435.42C1300.5 1442.15 1273.5 1420.03 1254 1380.59C1234.5 1341.15 1217 1331.53 1184.5 1337.3C1152 1343.07 1135 1398.86 1117 1458.5C1099 1518.14 1079 1519.1 1064 1521.99C1049 1524.87 1021.5 1501.79 1015 1467.16C1008.5 1432.53 992.5 1400.79 965 1394.06C937.5 1387.32 921.5 1420.03 902.5 1432.53C883.5 1445.04 847 1456.58 805 1355.58C763 1254.58 731.5 1256.5 728.5 1256.5C679 1250.73 654 1337.3 629 1375.78C604 1414.26 577 1413.29 519 1375.78C461 1338.27 429.5 1411.37 424.5 1437.34C420.5 1458.12 401.5 1503.71 392.5 1523.91C365.7 1569.31 335 1559.5 319.5 1549.88C301 1546.04 270.925 1474.99 254.5 1426.76C245 1398.86 200 1345.96 159.5 1387.32C119 1428.68 94 1434.46 85.5 1432.53C23.1 1415.6 2.5 1331.21 0 1291.13Z" fill="#B4C6FF" stroke="#B4C6FF" stroke-width="15"/>
</svg>
