<svg width="1920" height="1341" viewBox="0 0 1920 1341" fill="none" xmlns="http://www.w3.org/2000/svg">
<g clip-path="url(#clip0_191_8)">
<rect width="1920" height="1341" fill="#FBF6D1"/>
<rect width="1920" height="803" fill="#B4C6FF"/>
<path d="M737.083 64.6414C782.279 64.6414 798.279 31.6116 806.279 0H0.278564L0 331.883C16.3663 331.883 22.8646 342.225 24.068 347.397C24.2686 354.236 30.0005 367.415 49.3394 367.415C68.5938 367.415 74.4103 351.567 74.6108 343.893C77.6193 332.383 74.6108 290.846 81.8312 257.315C86.6893 234.756 114.925 235.629 125.755 238.298C170.883 247.807 139.594 288.343 170.883 315.368C192.544 334.077 229.248 318.37 234.663 302.356L249.706 227.789C253.316 217.78 278.133 192.758 314.689 219.281C342.969 239.799 369.845 221.45 377.266 209.772L409.156 97.1707C421.19 58.636 425.267 53.5808 452.479 50.6287C480.157 47.626 487.979 60.6378 503.022 77.6531C515.056 91.2654 538.121 89.664 548.149 87.1617C557.175 84.6594 575.827 70.1463 599.895 25.6061C611.686 3.78619 672.701 -3.42005 685.938 31.6116C696.442 59.4095 715.422 64.6414 737.083 64.6414Z" fill="#CBD7A8" stroke="#CBD7A8" stroke-width="15"/>
<path d="M1213.28 156.5C1160.28 156.5 1173.28 68 1155.78 0.5L1920.28 0V462L1913.28 528.5C1913.28 532.5 1906.28 553.5 1882.28 553.5C1865.28 553.5 1855.28 536.333 1853.78 528.5C1851.61 502.167 1847.18 448.4 1846.78 444C1846.28 438.5 1842.78 423.5 1825.78 423.5C1812.18 423.5 1806.78 433.833 1805.78 439C1805.61 445.833 1800.85 459 1784.78 459C1768.78 459 1763.95 443.167 1763.78 435.5C1761.28 424 1763.78 382.5 1757.78 349C1753.74 326.461 1730.28 327.333 1721.28 330C1683.78 339.5 1709.78 380 1683.78 407C1665.78 425.692 1635.28 410 1630.78 394L1618.28 319.5C1615.28 309.5 1594.66 284.501 1564.28 311C1540.78 331.5 1518.45 313.167 1512.28 301.5L1485.78 189C1475.78 150.5 1472.39 145.449 1449.78 142.5C1426.78 139.5 1420.28 152.5 1407.78 169.5C1397.78 183.1 1378.61 181.5 1370.28 179C1362.78 176.5 1347.28 162 1327.28 117.5C1317.48 95.6997 1266.78 88.5 1255.78 123.5C1247.05 151.273 1231.28 156.5 1213.28 156.5Z" fill="#E99EA8" stroke="#E99EA8" stroke-width="15"/>
<path d="M0 1052.13V803H1920V1098.3C1918.5 1117.54 1906.09 1148.32 1905 1151.21C1891.5 1186.8 1855.83 1205.07 1839.5 1204.11C1804 1204.11 1768.5 1129.08 1760 1117.54C1750.16 1104.18 1732 1089.65 1729.5 1085.8C1697.1 1070.41 1672 1096.06 1663.5 1110.81C1646 1125.24 1623 1255.46 1581 1282.03C1544.5 1305.11 1523 1276.25 1514 1267.6C1505 1258.94 1474.5 1190.65 1451 1158.9C1427.5 1127.16 1395.5 1133.89 1382 1147.36C1368.5 1160.83 1345.5 1189.68 1323 1196.42C1300.5 1203.15 1273.5 1181.03 1254 1141.59C1234.5 1102.15 1217 1092.53 1184.5 1098.3C1152 1104.07 1135 1159.86 1117 1219.5C1099 1279.14 1079 1280.1 1064 1282.99C1049 1285.87 1021.5 1262.79 1015 1228.16C1008.5 1193.53 992.5 1161.79 965 1155.06C937.5 1148.32 921.5 1181.03 902.5 1193.53C883.5 1206.04 847 1217.58 805 1116.58C763 1015.58 731.5 1017.5 728.5 1017.5C679 1011.73 654 1098.3 629 1136.78C604 1175.26 577 1174.29 519 1136.78C461 1099.27 429.5 1172.37 424.5 1198.34C420.5 1219.12 401.5 1264.71 392.5 1284.91C365.7 1330.31 335 1320.5 319.5 1310.88C301 1307.04 270.925 1235.99 254.5 1187.76C245 1159.86 200 1106.96 159.5 1148.32C119 1189.68 94 1195.46 85.5 1193.53C23.1 1176.6 2.5 1092.21 0 1052.13Z" fill="#B4C6FF" stroke="#B4C6FF" stroke-width="15"/>
</g>
<defs>
<clipPath id="clip0_191_8">
<rect width="1920" height="1341" fill="white"/>
</clipPath>
</defs>
</svg>
