<svg width="393" height="319" viewBox="0 0 393 319" fill="none" xmlns="http://www.w3.org/2000/svg">
<rect y="-7.18236e-06" width="393" height="218.197" fill="#B4C6FF"/>
<path d="M152.57 26.7381C164.007 26.7381 161.202 11.6178 164.978 0.0854251L-0.000106812 0V78.9328L1.51048 90.2944C1.51048 90.9778 3.02107 94.5656 8.20024 94.5656C11.8688 94.5656 14.0268 91.6327 14.3505 90.2944C14.8181 85.7953 15.7748 76.6093 15.8611 75.8575C15.969 74.9178 16.7243 72.3551 20.3929 72.3551C23.3277 72.3551 24.493 74.1205 24.7088 75.0033C24.7448 76.1708 25.7727 78.4203 29.2406 78.4203C32.6934 78.4203 33.7364 75.7151 33.7724 74.4053C34.3119 72.4405 33.7724 65.3502 35.0672 59.6267C35.9383 55.7759 41.0017 55.925 42.9438 56.3806C51.0363 58.0037 45.4255 64.9231 51.0363 69.5361C54.9207 72.7297 61.5025 70.0486 62.4736 67.315L65.1711 54.5867C65.8185 52.8782 70.2689 48.607 76.8242 53.1344C81.8955 56.6369 86.715 53.5046 88.0458 51.5114L93.7645 32.2907C95.9224 25.713 96.6536 24.8501 101.533 24.3462C106.497 23.8336 107.899 26.0547 110.597 28.9591C112.755 31.2827 116.891 31.0093 118.689 30.5822C120.308 30.1551 123.653 27.6777 127.969 20.0749C130.083 16.3503 141.024 15.1203 143.398 21.1C145.282 25.845 148.685 26.7381 152.57 26.7381Z" fill="url(#paint0_linear_633_20)"/>
<path d="M248.286 32.0336C237.437 32.0336 240.098 13.9188 236.516 0.102344L393 0V94.5656L391.567 108.177C391.567 108.996 390.134 113.295 385.222 113.295C381.742 113.295 379.695 109.781 379.388 108.177C378.944 102.787 378.037 91.7819 377.955 90.8813C377.853 89.7555 377.136 86.6852 373.657 86.6852C370.873 86.6852 369.768 88.8003 369.563 89.8578C369.529 91.2565 368.554 93.9516 365.265 93.9516C361.99 93.9516 361 90.7107 360.966 89.1414C360.454 86.7875 360.966 78.293 359.738 71.4359C358.912 66.8224 354.109 67.001 352.267 67.5469C344.591 69.4914 349.913 77.7812 344.591 83.3078C340.907 87.1339 334.664 83.9219 333.743 80.6469L331.184 65.3977C330.57 63.3508 326.349 58.2337 320.131 63.6578C315.321 67.8539 310.749 64.1013 309.487 61.7133L304.063 38.6859C302.016 30.8055 301.323 29.7717 296.694 29.168C291.986 28.5539 290.656 31.2148 288.097 34.6945C286.05 37.4783 282.127 37.1508 280.422 36.6391C278.886 36.1273 275.714 33.1594 271.62 24.0508C269.615 19.5885 259.236 18.1148 256.985 25.2789C255.198 30.9637 251.97 32.0336 248.286 32.0336Z" fill="url(#paint1_linear_633_20)"/>
<path d="M0 264.22V213.088H393V273.697C392.693 277.645 390.154 283.963 389.93 284.555C387.166 291.86 379.866 295.611 376.523 295.413C369.256 295.413 361.99 280.014 360.25 277.645C358.236 274.903 354.519 271.92 354.007 271.13C347.375 267.972 342.237 273.236 340.498 276.263C336.916 279.225 332.208 305.953 323.611 311.405C316.14 316.143 311.739 310.22 309.897 308.443C308.055 306.667 301.812 292.65 297.002 286.135C292.191 279.62 285.641 281.002 282.878 283.765C280.115 286.529 275.407 292.452 270.802 293.834C266.196 295.216 260.67 290.675 256.678 282.581C252.687 274.487 249.105 272.512 242.452 273.697C235.8 274.881 232.32 286.332 228.636 298.572C224.952 310.813 220.858 311.01 217.788 311.602C214.717 312.195 209.088 307.456 207.758 300.349C206.427 293.242 203.152 286.727 197.523 285.345C191.895 283.963 188.62 290.675 184.73 293.242C180.841 295.808 173.37 298.177 164.773 277.448C156.177 256.718 149.729 257.113 149.115 257.113C138.983 255.929 133.866 273.697 128.748 281.594C123.631 289.491 118.105 289.293 106.233 281.594C94.3609 273.894 87.9133 288.899 86.8898 294.229C86.0711 298.493 82.182 307.851 80.3398 311.997C74.8542 321.316 68.5703 319.302 65.3977 317.328C61.6109 316.538 55.4549 301.956 52.093 292.057C50.1484 286.332 40.9375 275.474 32.6477 283.963C24.3578 292.452 19.2406 293.637 17.5008 293.242C4.72828 289.767 0.511719 272.446 0 264.22Z" fill="#B4C6FF"/>
<defs>
<linearGradient id="paint0_linear_633_20" x1="82.489" y1="0" x2="82.489" y2="94.5656" gradientUnits="userSpaceOnUse">
<stop stop-color="#CBD7A8"/>
<stop offset="1" stop-color="#CBD0BD"/>
</linearGradient>
<linearGradient id="paint1_linear_633_20" x1="314.758" y1="0" x2="314.758" y2="113.295" gradientUnits="userSpaceOnUse">
<stop stop-color="#E99EA8"/>
<stop offset="1" stop-color="#E3909B"/>
</linearGradient>
</defs>
</svg>
