<svg width="975" height="103" viewBox="0 0 975 103" fill="none" xmlns="http://www.w3.org/2000/svg">
<path d="M23.8477 67.0348C0.500002 51.5 0.499955 4 0.5 0.5H974.5C974.5 11.5 970.5 36 957.5 52C941.223 72.0329 922.5 82 899.5 76.5C862.164 67.5719 875 37.5 841 43.5C807 49.5 806.03 102.142 769.577 102.142C741.088 102.142 713.5 38.5 695 33C663.171 23.5373 646.892 48.1629 632.921 57.8001C618.949 67.4373 595.145 88.0884 571.859 92.907C548.573 97.7256 512.112 95.258 491.93 67.0348C471.749 38.8115 444.528 23.4305 411 18.5C394 16 376.146 18.5 356 45C329.932 79.2899 318 79.5 301.5 79.5C275.77 79.5 270.5 80.5 237.5 44.5C204.5 8.5 170 17 148 35C125.915 53.0695 106.5 74.5 85.5 80.5C64.5 86.5 47.4652 82.7491 23.8477 67.0348Z" fill="#FBF6D1" stroke="#FBF6D1"/>
</svg>
