<svg width="1045" height="199" viewBox="0 0 1045 199" fill="none" xmlns="http://www.w3.org/2000/svg">
<path d="M35.091 79.7696C-11.6557 7.80894 3.06225 2.67746 1.56098 0.506409L1043.77 7.45378C1048.77 9.19062 1027.09 66.6482 1010.75 109.925C1000.24 132.938 961.712 140.622 940.698 127.73C900.805 103.257 891.679 100.15 883.659 101.7C841.131 109.925 862.836 193.646 824.219 187.368C793.473 182.369 780.255 132.541 754.099 109.925C727.943 87.3083 692.326 92.1057 677.301 101.7C662.275 111.295 636.676 131.855 611.633 136.653C586.59 141.45 556.539 125.687 534.835 97.5884C513.131 69.4895 493.653 62.6361 457.48 66.7481C421.307 70.8602 402.386 110.61 382.352 153.101C362.318 195.592 340.057 196.277 323.362 198.333C306.667 200.389 276.059 183.941 268.824 159.269C261.59 134.597 243.781 111.981 213.173 107.183C182.565 102.386 164.757 125.687 143.61 134.597C122.463 143.506 81.8376 151.73 35.091 79.7696Z" fill="#FBF6D1" stroke="#FBF6D1"/>
</svg>
